<?xml version="1.0" encoding="us-ascii" standalone="no"?><svg xmlns="http://www.w3.org/2000/svg" xmlns:xlink="http://www.w3.org/1999/xlink" contentStyleType="text/css" height="774px" preserveAspectRatio="none" style="width:366px;height:774px;background:#FFFFFF;" version="1.1" viewBox="0 0 366 774" width="366px" zoomAndPan="magnify"><defs/><g><ellipse cx="288.2" cy="16" fill="#222222" rx="10" ry="10" style="stroke:#222222;stroke-width:1.0;"/><g id="PENDING"><rect fill="#F1F1F1" height="50" rx="12.5" ry="12.5" style="stroke:#181818;stroke-width:0.5;" width="80" x="248.2" y="86"/><line style="stroke:#181818;stroke-width:0.5;" x1="248.2" x2="328.2" y1="114.6211" y2="114.6211"/><text fill="#000000" font-family="sans-serif" font-size="14" lengthAdjust="spacing" textLength="60" x="258.2" y="106.1074">PENDING</text></g><g id="PROCESSING"><rect fill="#F1F1F1" height="50" rx="12.5" ry="12.5" style="stroke:#181818;stroke-width:0.5;" width="110" x="179.2" y="196"/><line style="stroke:#181818;stroke-width:0.5;" x1="179.2" x2="289.2" y1="224.6211" y2="224.6211"/><text fill="#000000" font-family="sans-serif" font-size="14" lengthAdjust="spacing" textLength="90" x="189.2" y="216.1074">PROCESSING</text></g><g id="CANCELLED"><rect fill="#F1F1F1" height="50" rx="12.5" ry="12.5" style="stroke:#181818;stroke-width:0.5;" width="102" x="166.2" y="636"/><line style="stroke:#181818;stroke-width:0.5;" x1="166.2" x2="268.2" y1="664.6211" y2="664.6211"/><text fill="#000000" font-family="sans-serif" font-size="14" lengthAdjust="spacing" textLength="82" x="176.2" y="656.1074">CANCELLED</text></g><g id="SHIPPED"><rect fill="#F1F1F1" height="50" rx="12.5" ry="12.5" style="stroke:#181818;stroke-width:0.5;" width="78" x="117.2" y="416"/><line style="stroke:#181818;stroke-width:0.5;" x1="117.2" x2="195.2" y1="444.6211" y2="444.6211"/><text fill="#000000" font-family="sans-serif" font-size="14" lengthAdjust="spacing" textLength="58" x="127.2" y="436.1074">SHIPPED</text></g><g id="PAID"><rect fill="#F1F1F1" height="50" rx="12.5" ry="12.5" style="stroke:#181818;stroke-width:0.5;" width="51" x="40.7" y="306"/><line style="stroke:#181818;stroke-width:0.5;" x1="40.7" x2="91.7" y1="334.6211" y2="334.6211"/><text fill="#000000" font-family="sans-serif" font-size="14" lengthAdjust="spacing" textLength="31" x="50.7" y="326.1074">PAID</text></g><ellipse cx="113.2" cy="757" fill="none" rx="11" ry="11" style="stroke:#222222;stroke-width:1.0;"/><ellipse cx="113.2" cy="757" fill="#222222" rx="6" ry="6" style="stroke:#222222;stroke-width:1.0;"/><g id="DELIVERED"><rect fill="#F1F1F1" height="50" rx="12.5" ry="12.5" style="stroke:#181818;stroke-width:0.5;" width="97" x="66.7" y="526"/><line style="stroke:#181818;stroke-width:0.5;" x1="66.7" x2="163.7" y1="554.6211" y2="554.6211"/><text fill="#000000" font-family="sans-serif" font-size="14" lengthAdjust="spacing" textLength="77" x="76.7" y="546.1074">DELIVERED</text></g><!--link *start* to PENDING--><g id="link_*start*_PENDING"><path d="M288.2,26.26 C288.2,40.04 288.2,60.42 288.2,79.91 " fill="none" id="*start*-to-PENDING" style="stroke:#181818;stroke-width:1.0;"/><polygon fill="#181818" points="288.2,85.91,292.2,76.91,288.2,80.91,284.2,76.91,288.2,85.91" style="stroke:#181818;stroke-width:1.0;"/></g><!--link PENDING to PROCESSING--><g id="link_PENDING_PROCESSING"><path d="M276.08,136.24 C267.18,154.02 257.8457,172.7146 248.9557,190.4746 " fill="none" id="PENDING-to-PROCESSING" style="stroke:#181818;stroke-width:1.0;"/><polygon fill="#181818" points="246.27,195.84,253.8754,189.5824,248.5081,191.3689,246.7216,186.0015,246.27,195.84" style="stroke:#181818;stroke-width:1.0;"/></g><!--link PROCESSING to CANCELLED--><g id="link_PROCESSING_CANCELLED"><path d="M233.26,246.17 C230.28,322.75 221.3329,553.4345 218.3629,629.9045 " fill="none" id="PROCESSING-to-CANCELLED" style="stroke:#181818;stroke-width:1.0;"/><polygon fill="#181818" points="218.13,635.9,222.4763,627.062,218.324,630.9038,214.4823,626.7515,218.13,635.9" style="stroke:#181818;stroke-width:1.0;"/></g><!--link PROCESSING to SHIPPED--><g id="link_PROCESSING_SHIPPED"><path d="M225.55,246.16 C210.56,288.07 181.9213,368.1007 166.9013,410.0807 " fill="none" id="PROCESSING-to-SHIPPED" style="stroke:#181818;stroke-width:1.0;"/><polygon fill="#181818" points="164.88,415.73,171.6781,408.6036,166.5644,411.0223,164.1457,405.9086,164.88,415.73" style="stroke:#181818;stroke-width:1.0;"/></g><!--link PROCESSING to PAID--><g id="link_PROCESSING_PAID"><path d="M196.49,246.24 C164.57,266.76 124.717,292.3754 96.827,310.3054 " fill="none" id="PROCESSING-to-PAID" style="stroke:#181818;stroke-width:1.0;"/><polygon fill="#181818" points="91.78,313.55,101.5136,312.0477,95.9858,310.8461,97.1874,305.3184,91.78,313.55" style="stroke:#181818;stroke-width:1.0;"/></g><!--link PAID to CANCELLED--><g id="link_PAID_CANCELLED"><path d="M55.93,356.03 C37.81,402.47 6,506.1 49.2,576 C74.48,616.92 120.6203,636.9592 160.0903,647.9592 " fill="none" id="PAID-to-CANCELLED" style="stroke:#181818;stroke-width:1.0;"/><polygon fill="#181818" points="165.87,649.57,158.2742,643.3007,161.0535,648.2277,156.1265,651.007,165.87,649.57" style="stroke:#181818;stroke-width:1.0;"/></g><!--link PAID to SHIPPED--><g id="link_PAID_SHIPPED"><path d="M86.39,356.24 C101.22,374.02 117.4189,393.4707 132.2189,411.2307 " fill="none" id="PAID-to-SHIPPED" style="stroke:#181818;stroke-width:1.0;"/><polygon fill="#181818" points="136.06,415.84,133.3712,406.3653,132.8591,411.9989,127.2255,411.4867,136.06,415.84" style="stroke:#181818;stroke-width:1.0;"/></g><!--link PAID to *end*--><g id="link_PAID_*end*"><path d="M49.18,356.04 C38.85,372.16 26.63,394.34 21.2,416 C15.67,438.01 14.11,539.03 23.2,576 C40.7,647.25 86.6365,717.7956 103.8065,742.6156 " fill="none" id="PAID-to-*end*" style="stroke:#181818;stroke-width:1.0;"/><polygon fill="#181818" points="107.22,747.55,105.3893,737.8728,104.3754,743.438,98.8102,742.4241,107.22,747.55" style="stroke:#181818;stroke-width:1.0;"/></g><!--link SHIPPED to DELIVERED--><g id="link_SHIPPED_DELIVERED"><path d="M146.99,466.24 C140.24,484.02 133.2389,502.4704 126.4989,520.2304 " fill="none" id="SHIPPED-to-DELIVERED" style="stroke:#181818;stroke-width:1.0;"/><polygon fill="#181818" points="124.37,525.84,131.3031,518.8448,126.1441,521.1653,123.8236,516.0063,124.37,525.84" style="stroke:#181818;stroke-width:1.0;"/></g><!--link SHIPPED to CANCELLED--><g id="link_SHIPPED_CANCELLED"><path d="M163.59,466.21 C168.66,482.97 175.48,505.8 181.2,526 C192.02,564.24 202.3298,603.0558 209.3698,629.9358 " fill="none" id="SHIPPED-to-CANCELLED" style="stroke:#181818;stroke-width:1.0;"/><polygon fill="#181818" points="210.89,635.74,212.4793,626.0202,209.6232,630.9031,204.7403,628.0471,210.89,635.74" style="stroke:#181818;stroke-width:1.0;"/></g><!--link DELIVERED to *end*--><g id="link_DELIVERED_*end*"><path d="M114.96,576.2 C114.52,620.95 113.6601,708.8903 113.3501,739.8603 " fill="none" id="DELIVERED-to-*end*" style="stroke:#181818;stroke-width:1.0;"/><polygon fill="#181818" points="113.29,745.86,117.3799,736.9005,113.34,740.8603,109.3803,736.8204,113.29,745.86" style="stroke:#181818;stroke-width:1.0;"/></g><!--link DELIVERED to CANCELLED--><g id="link_DELIVERED_CANCELLED"><path d="M138.09,576.24 C154.88,594.02 173.4794,613.7187 190.2594,631.4787 " fill="none" id="DELIVERED-to-CANCELLED" style="stroke:#181818;stroke-width:1.0;"/><polygon fill="#181818" points="194.38,635.84,191.1066,626.551,190.9462,632.2056,185.2916,632.0452,194.38,635.84" style="stroke:#181818;stroke-width:1.0;"/></g><!--link CANCELLED to PENDING--><g id="link_CANCELLED_PENDING"><path d="M246.62,635.88 C288.21,598.88 359.2,523.75 359.2,442 C359.2,330 359.2,330 359.2,330 C359.2,256.36 324.9024,180.6259 304.3324,141.3259 " fill="none" id="CANCELLED-to-PENDING" style="stroke:#181818;stroke-width:1.0;"/><polygon fill="#181818" points="301.55,136.01,302.1797,145.8387,303.8686,140.4399,309.2675,142.1289,301.55,136.01" style="stroke:#181818;stroke-width:1.0;"/></g><!--link CANCELLED to *end*--><g id="link_CANCELLED_*end*"><path d="M190.41,686.21 C167.3,707.1 139.8707,731.8862 125.3807,744.9862 " fill="none" id="CANCELLED-to-*end*" style="stroke:#181818;stroke-width:1.0;"/><polygon fill="#181818" points="120.93,749.01,130.2886,745.9415,124.639,745.6568,124.9236,740.0072,120.93,749.01" style="stroke:#181818;stroke-width:1.0;"/></g><!--SRC=[YzQALT3LjLC8SFLpyVHpvuBI4B4WVsVNu62mC9m9bd5sz7DszV5nTK6N2FRm30Z050vmz7JXuWAHwDfXGd2DC85ehLWkBgWeMC35rSSpp3K8g0PP564K5rm1N3-g299IE1F5xwYY80C0]--></g></svg>